Formula 1 2013. Practice Session 3

Round 2: 	Malaysia. Kuala Lumpur. (22-24th March 2013) 
Circuit: 	Sepang International Circuit
Air Date: 	23.03.13 
Time: 		04.45am-06.10am
Running Time: 	1hr:15min

Coverage of the 3rd Practice Session for the Malaysian GP, broadcast Live via SKY SPORTS F1 HD at the Sepang Circuit. 

To reduce SKY's LIVE audio sync errors during add-breaks,the commercials have been left intact. Removing them can cause considerable encoding and playback problems as the 
live stream switches from Dolby Digital to standard stereo output and back during such breaks, this plays havoc with encoding the audio feed as pure 6 channel AC3 Digital.

All my torrents for F1 2013 are wrapped into MKV format. Resolution is downscaled from 1080i&gt;50 source to 720p with 6 channel AC3 Dolby Digital Audio. 
These video files will play very fluidly with the standard media players such as VLC, WMP, KM Player, WMC, MP-HC.

H.264 High Profile 4.1 has been used in combination with 50fps to maintain smooth and fluid playback with HD quality... 


FOR ALL YOUR LATEST F1 NEWS, GOSSIP, TRACK GUIDES, DISCUSSION & FULL TORRENT INFORMATION IN MORE DETAIL, AND ACCESS TO MUCH MORE, PLEASE KEEP YOUR EYE ON THE FORUM:  
http://www.f1racingleague.co.uk/f82-formula-1-2013-torrents

Join my Twitter Feed for all Formula 1 info & get notified via tweets when torrents become available!: 
Follow me @

Thank you's,comments and suggestions are always welcome...

Theblacknight

**For anyone having mkv playback issues on Windows 7 or 8, I do recommend installing the Shark Codec Packs which are available free on the link below: (*NOTE: sharks default settings work well for WMP)

Video File Encoding Details:

Format version                           : Version 4 / Version 2
File size                                : 4.56 GiB
Duration                                 : 1h 15mn
Overall bit rate                         : 8 691 Kbps
Encoded date                             : UTC 2013-03-23 06:27:41
Writing application                      : mkvmerge v6.0.0 ('Coming Up For Air') built on Jan 20 2013 09:52:00
Writing library                          : Lavf54.63.100

Video
ID                                       : 1
Format                                   : AVC
Format/Info                              : Advanced Video Codec
Format profile                           : High@L4.1
Format settings, CABAC                   : Yes
Format settings, ReFrames                : 4 frames
Codec ID                                 : V_MPEG4/ISO/AVC
Duration                                 : 1h 15mn
Bit rate                                 : 8 134 Kbps
Width                                    : 1 280 pixels
Height                                   : 720 pixels
Display aspect ratio                     : 16:9
Frame rate mode                          : Constant
Frame rate                               : 50.000 fps
Color space                              : YUV
Chroma subsampling                       : 4:2:0
Bit depth                                : 8 bits
Scan type                                : Progressive
Bits/(Pixel*Frame)                       : 0.177
Stream size                              : 4.27 GiB (94%)
Writing library                          : x264 core 130 r2273
Encoding settings                        : cabac=1 / ref=4 / deblock=1:0:0 / analyse=0x3:0x133 / me=dia / subme=4 / psy=1 / psy_rd=1.00:0.00 / mixed_ref=0 / me_range=16 / chroma_me=1 / trellis=0 / 8x8dct=1 / cqm=0 / deadzone=21,11 / fast_pskip=1 / chroma_qp_offset=0 / threads=4 / lookahead_threads=1 / sliced_threads=0 / nr=0 / decimate=1 / interlaced=0 / bluray_compat=0 / constrained_intra=0 / bframes=4 / b_pyramid=0 / b_adapt=1 / b_bias=0 / direct=3 / weightb=1 / open_gop=0 / weightp=1 / keyint=500 / keyint_min=50 / scenecut=40 / intra_refresh=0 / rc=cqp / mbtree=0 / qp=21 / ip_ratio=1.40 / pb_ratio=1.30 / aq=0
Default                                  : Yes
Forced                                   : No

Audio
ID                                       : 2
Format                                   : AC-3
Format/Info                              : Audio Coding 3
Mode extension                           : CM (complete main)
Format settings, Endianness              : Big
Codec ID                                 : A_AC3
Duration                                 : 1h 15mn
Bit rate mode                            : Constant
Bit rate                                 : 384 Kbps
Channel(s)                               : 6 channels
Channel positions                        : Front: L C R, Side: L R, LFE
Sampling rate                            : 48.0 KHz
Bit depth                                : 16 bits
Compression mode                         : Lossy
Delay relative to video                  : -20ms
Stream size                              : 206 MiB (4%)
Language                                 : English
Default                                  : Yes
Forced                                   : No

